<svg xmlns="http://www.w3.org/2000/svg" viewBox="0 0 788.96 788.96"><defs><style>.cls-1{fill:#ff9522;}</style></defs><g id="Camada_2" data-name="Camada 2"><g id="Layer_1" data-name="Layer 1"><path class="cls-1" d="M203.24,301.48c-.12-29.94,11.85-54.49,33.07-75,5.39-5.21,11.69-8,19.36-7.61,6.81.35,13.69-.19,20.41.68,2.47.32,5.55,3.1,6.67,5.54,5.39,11.77,10.19,23.8,15.22,35.73C303.91,274.91,309.8,289,315.88,303c1.53,3.51,1.89,6.87-.36,9.92-7.1,9.59-13.8,19.57-21.77,28.4-11.68,13-13.2,21.86-4.21,36.68,32,52.81,75.46,92.56,132.86,116.41,3.67,1.53,7.24,3.36,11,4.75,11.15,4.15,21.16,2.19,28.95-6.94q16.37-19.17,31.94-39c2.67-3.4,4.94-4.29,8.74-2.51,20.45,9.6,40.94,19.09,61.4,28.65,6.17,2.88,12.37,5.72,18.38,8.89,1.38.73,3,2.77,2.94,4.2-.1,24.95-7.33,46-30,60.3-16.85,10.67-35,17-54.32,17.36-12.94.21-26.31-3.48-38.9-7.34-30.78-9.45-61.37-19.7-89.45-36-40-23.18-73.71-53.82-102.08-90-17-21.69-32.55-44.61-47.45-67.81-10.27-16-16.48-34.05-19.16-53.06C203.74,311.14,203.62,306.29,203.24,301.48Z"/><path class="cls-1" d="M394.48,42A352.58,352.58,0,0,1,531.67,719.28,352.59,352.59,0,0,1,257.29,69.68,350.23,350.23,0,0,1,394.48,42m0-42C176.62,0,0,176.62,0,394.48S176.62,789,394.48,789,789,612.35,789,394.48,612.35,0,394.48,0Z"/></g></g></svg>