<svg version="1.1" id="Layer_1" xmlns="http://www.w3.org/2000/svg" xmlns:xlink="http://www.w3.org/1999/xlink" x="0px" y="0px"
	 width="18px" height="18px" viewBox="0 0 18 18" enable-background="new 0 0 18 18" xml:space="preserve">
<path d="M15.723,5.222c0,0-3.765-0.625-4.033-3.785H9.336v9.215c0,2.633-2.073,3.76-3.454,2.759
	c-1.754-1.269-0.579-3.91,1.605-3.582V7.032c-1.681,0-5.209,0.658-5.209,4.771c0,5.267,5.726,5.103,7.058,4.408
	c2.167-1.13,2.689-2.353,2.689-5.065c0-2.469,0-3.95,0-4.608c0.56,0.274,3.697,0.988,3.697,0.988S15.723,7.526,15.723,5.222z"/>
</svg>
