<svg version="1.0" id="Layer_1" xmlns="http://www.w3.org/2000/svg" xmlns:xlink="http://www.w3.org/1999/xlink" x="0px" y="0px" width="20" height="20" viewBox="0 0 22.559 22.537" enable-background="new 0 0 22.559 22.537" xml:space="preserve"><path fill-rule="evenodd" clip-rule="evenodd" d="M14.611,15.949c-4.224,3.12-9.501,2.154-12.319-1.24 c-2.895-3.489-2.715-8.477,0.416-11.794c2.98-3.157,8.063-3.571,11.588-0.994c3.507,2.563,5.066,8.042,1.725,12.639 c0.764,0.742,1.545,1.491,2.313,2.251c1.148,1.138,2.288,2.283,3.43,3.427c0.647,0.648,0.734,1.252,0.256,1.744 c-0.48,0.493-1.103,0.417-1.742-0.221c-1.729-1.728-3.458-3.454-5.181-5.188C14.918,16.391,14.781,16.169,14.611,15.949z M9.047,15.724c3.71,0.005,6.688-2.945,6.698-6.637c0.01-3.721-2.971-6.743-6.666-6.759C5.441,2.313,2.37,5.356,2.35,8.996 C2.329,12.688,5.345,15.718,9.047,15.724z"/></svg>