<svg xmlns="http://www.w3.org/2000/svg" viewBox="0 0 9.93 14.13"><g id="Camada_2" data-name="Camada 2"><g id="Layer_1" data-name="Layer 1"><path class="cls-1" d="M4.86,14.13a1.88,1.88,0,0,1-.32-.31c-.83-1.19-1.67-2.37-2.48-3.58A14,14,0,0,1,.4,7.06,6.36,6.36,0,0,1,0,4.85,5,5,0,0,1,3.59.2c.3-.08.62-.12.93-.18l.09,0h.72c.27.05.54.08.81.14A5,5,0,0,1,9.89,4.29a6,6,0,0,1-.44,3,15.87,15.87,0,0,1-1.76,3.24c-.78,1.14-1.58,2.27-2.37,3.4a1.16,1.16,0,0,1-.24.2ZM5,13l0-.06c.69-1,1.4-2,2.08-3A13.73,13.73,0,0,0,8.74,6.84a5,5,0,0,0,.33-2.4A4.14,4.14,0,0,0,1,3.82a4.67,4.67,0,0,0,.13,2.79A11.43,11.43,0,0,0,2.48,9.37c.8,1.19,1.63,2.37,2.45,3.55Z"/><path class="cls-1" d="M7.45,5A2.49,2.49,0,1,1,5,2.48,2.49,2.49,0,0,1,7.45,5ZM6.62,5A1.66,1.66,0,1,0,5,6.62,1.66,1.66,0,0,0,6.62,5Z"/></g></g></svg>