<svg height="18" viewBox="0 0 17 14" fill="none" xmlns="http://www.w3.org/2000/svg"><path d="M0.53 12C0.43 12 0.345 11.965 0.275 11.895C0.205 11.825 0.17 11.74 0.17 11.64V1.875C0.17 1.765 0.205 1.675 0.275 1.605C0.345 1.535 0.43 1.5 0.53 1.5H4.415C5.625 1.5 6.58 1.78 7.28 2.34C7.98 2.9 8.33 3.715 8.33 4.785C8.33 5.525 8.145 6.14 7.775 6.63C7.415 7.12 6.93 7.475 6.32 7.695L8.51 11.52C8.54 11.58 8.555 11.635 8.555 11.685C8.555 11.775 8.52 11.85 8.45 11.91C8.39 11.97 8.32 12 8.24 12H6.875C6.705 12 6.575 11.955 6.485 11.865C6.395 11.775 6.325 11.685 6.275 11.595L4.34 8.04H2.255V11.64C2.255 11.74 2.22 11.825 2.15 11.895C2.09 11.965 2.005 12 1.895 12H0.53ZM2.255 6.345H4.37C4.98 6.345 5.435 6.21 5.735 5.94C6.035 5.66 6.185 5.27 6.185 4.77C6.185 4.27 6.035 3.88 5.735 3.6C5.445 3.31 4.99 3.165 4.37 3.165H2.255V6.345ZM11.9428 13.5C11.8428 13.5 11.7578 13.465 11.6878 13.395C11.6178 13.325 11.5828 13.24 11.5828 13.14V12.09C10.8428 12.02 10.2178 11.845 9.70777 11.565C9.19777 11.275 8.81277 10.93 8.55277 10.53C8.29277 10.12 8.15277 9.695 8.13277 9.255C8.13277 9.165 8.16277 9.09 8.22277 9.03C8.29277 8.97 8.37277 8.94 8.46277 8.94H9.79777C9.91777 8.94 10.0128 8.97 10.0828 9.03C10.1528 9.08 10.2078 9.145 10.2478 9.225C10.3178 9.415 10.4328 9.605 10.5928 9.795C10.7628 9.975 10.9978 10.125 11.2978 10.245C11.5978 10.365 11.9728 10.425 12.4228 10.425C13.1428 10.425 13.6778 10.305 14.0278 10.065C14.3778 9.825 14.5528 9.5 14.5528 9.09C14.5528 8.8 14.4578 8.57 14.2678 8.4C14.0878 8.22 13.7978 8.06 13.3978 7.92C12.9978 7.77 12.4728 7.615 11.8228 7.455C11.0828 7.275 10.4578 7.06 9.94777 6.81C9.43777 6.55 9.05277 6.225 8.79277 5.835C8.54277 5.445 8.41777 4.95 8.41777 4.35C8.41777 3.58 8.69777 2.925 9.25777 2.385C9.81777 1.845 10.5928 1.515 11.5828 1.395V0.36C11.5828 0.26 11.6178 0.175 11.6878 0.104999C11.7578 0.0349997 11.8428 -1.78814e-07 11.9428 -1.78814e-07H12.8578C12.9578 -1.78814e-07 13.0428 0.0349997 13.1128 0.104999C13.1828 0.175 13.2178 0.26 13.2178 0.36V1.425C13.8978 1.525 14.4678 1.725 14.9278 2.025C15.3878 2.325 15.7378 2.67 15.9778 3.06C16.2178 3.44 16.3428 3.81 16.3528 4.17C16.3528 4.25 16.3228 4.325 16.2628 4.395C16.2128 4.455 16.1378 4.485 16.0378 4.485H14.6428C14.5528 4.485 14.4678 4.465 14.3878 4.425C14.3078 4.385 14.2428 4.31 14.1928 4.2C14.1428 3.89 13.9528 3.625 13.6228 3.405C13.2928 3.185 12.8628 3.075 12.3328 3.075C11.7928 3.075 11.3578 3.175 11.0278 3.375C10.7078 3.575 10.5478 3.885 10.5478 4.305C10.5478 4.585 10.6278 4.82 10.7878 5.01C10.9478 5.19 11.2078 5.35 11.5678 5.49C11.9378 5.63 12.4278 5.78 13.0378 5.94C13.8878 6.13 14.5778 6.35 15.1078 6.6C15.6478 6.85 16.0428 7.17 16.2928 7.56C16.5528 7.94 16.6828 8.425 16.6828 9.015C16.6828 9.595 16.5378 10.105 16.2478 10.545C15.9678 10.975 15.5678 11.325 15.0478 11.595C14.5278 11.855 13.9178 12.025 13.2178 12.105V13.14C13.2178 13.24 13.1828 13.325 13.1128 13.395C13.0428 13.465 12.9578 13.5 12.8578 13.5H11.9428Z" fill="#c59f4f"/></svg>