<svg xmlns="http://www.w3.org/2000/svg" viewBox="0 0 28.84 28.84"><defs><style>.cls-1{fill:#FFFFFF;}</style></defs><g id="Camada_2" data-name="Camada 2"><g id="Layer_1" data-name="Layer 1"><path class="cls-1" d="M0,28.81l.7-2c.57-1.66,1.12-3.32,1.69-5a.36.36,0,0,0,0-.32A13.88,13.88,0,0,1,.48,16.4a13,13,0,0,1-.15-3.24A14,14,0,0,1,5.18,3.52,14.07,14.07,0,0,1,12,.24a14.32,14.32,0,0,1,16.1,9.25,13,13,0,0,1,.73,3.42,13.86,13.86,0,0,1-4.92,12,13.72,13.72,0,0,1-6.53,3.16,14,14,0,0,1-4.13.2,14,14,0,0,1-5.49-1.67.48.48,0,0,0-.42,0L.21,28.8l-.21,0ZM2.41,26.5l.12,0,5-1.59a.4.4,0,0,1,.37,0,12.67,12.67,0,0,0,8.93,1.69,12.44,12.44,0,0,0,6.29-3.08,12.42,12.42,0,0,0,4.16-8.34,12.11,12.11,0,0,0-.2-3.5,12.33,12.33,0,0,0-2.91-5.84,12.61,12.61,0,0,0-8.33-4.27,12.08,12.08,0,0,0-3.84.2A12.45,12.45,0,0,0,4.53,6.4,12.32,12.32,0,0,0,2,16.09,12.23,12.23,0,0,0,4,21.24a.34.34,0,0,1,0,.35c-.35,1-.69,2-1,3Z"/><path class="cls-1" d="M7.81,10.91A3.64,3.64,0,0,1,9,8.2a.91.91,0,0,1,.7-.28c.24,0,.49,0,.74,0a.37.37,0,0,1,.24.2c.19.42.37.86.55,1.29s.42,1,.64,1.52a.33.33,0,0,1,0,.36c-.26.35-.5.71-.79,1a.93.93,0,0,0-.15,1.32,10,10,0,0,0,4.8,4.21l.4.17a.86.86,0,0,0,1-.25c.4-.46.78-.93,1.16-1.41.09-.12.18-.16.31-.09l2.22,1,.67.32a.22.22,0,0,1,.1.15A2.33,2.33,0,0,1,20.55,20a3.7,3.7,0,0,1-2,.63,4.62,4.62,0,0,1-1.41-.26A16.41,16.41,0,0,1,14,19.05a13.07,13.07,0,0,1-3.69-3.26c-.61-.78-1.17-1.61-1.71-2.45a4.58,4.58,0,0,1-.69-1.91C7.83,11.26,7.83,11.08,7.81,10.91Z"/></g></g></svg>